<?xml version="1.0" encoding="UTF-8" standalone="no"?><!DOCTYPE svg PUBLIC "-//W3C//DTD SVG 1.1//EN" "http://www.w3.org/Graphics/SVG/1.1/DTD/svg11.dtd"><svg width="100%" height="100%" viewBox="0 0 900 900" version="1.1" xmlns="http://www.w3.org/2000/svg" xmlns:xlink="http://www.w3.org/1999/xlink" xml:space="preserve" style="fill-rule:evenodd;clip-rule:evenodd;stroke-linejoin:round;stroke-miterlimit:1.41421;"><path d="M450,0c-194.952,0 -367.732,125.532 -427.975,310.942l128.392,41.718c42.171,-129.787 163.117,-217.66 299.583,-217.66l0,-135Z" style="fill:none;stroke-width:0.75px;stroke:#000;"/><path d="M877.975,310.942c-60.243,-185.41 -233.023,-310.942 -427.975,-310.942l0,134.494c136.686,0 257.826,88.013 300.064,218.009l127.911,-41.561Z" style="fill:none;stroke-width:0.75px;stroke:#000;"/><path d="M714.503,814.058c116.537,-84.669 185.497,-220.011 185.497,-364.058c0,-47.221 -7.432,-94.148 -22.025,-139.058l-128.392,41.718c10.214,31.437 15.417,64.285 15.417,97.34c0,100.833 -48.272,195.572 -129.848,254.84l79.351,109.218Z" style="fill:none;stroke-width:0.75px;stroke:#000;"/><path d="M22.025,310.942c-14.593,44.91 -22.025,91.837 -22.025,139.058c0,144.047 68.96,279.389 185.497,364.058l79.351,-109.218c-81.576,-59.268 -129.848,-154.007 -129.848,-254.84c0,-33.055 5.203,-65.903 15.417,-97.34l-128.392,-41.718Z" style="fill:none;stroke-width:0.75px;stroke:#000;"/><path d="M185.497,814.058c76.881,55.857 169.472,85.942 264.503,85.942c95.031,0 187.622,-30.085 264.503,-85.942l-79.351,-109.218c-53.817,39.101 -118.631,60.16 -185.152,60.16c-66.521,0 -131.335,-21.059 -185.152,-60.16l-79.351,109.218Z" style="fill:none;stroke-width:0.75px;stroke:#000;"/></svg>