<?xml version="1.0" encoding="UTF-8" standalone="no"?><!DOCTYPE svg PUBLIC "-//W3C//DTD SVG 1.1//EN" "http://www.w3.org/Graphics/SVG/1.1/DTD/svg11.dtd"><svg width="100%" height="100%" viewBox="0 0 202 257" version="1.1" xmlns="http://www.w3.org/2000/svg" xmlns:xlink="http://www.w3.org/1999/xlink" xml:space="preserve" style="fill-rule:evenodd;clip-rule:evenodd;stroke-linecap:round;stroke-linejoin:round;stroke-miterlimit:1.41421;"><clipPath id="_clip1"><rect x="0" y="0" width="201.431" height="256.248"/></clipPath><g clip-path="url(#_clip1)"><g><circle cx="0.585" cy="66.549" r="187.5" style="fill:none;stroke-width:1.5px;stroke:#7a8339;"/><path d="M144.047,217.138c27.766,-25 47.429,-57.726 56.468,-93.979l-25.905,-6.459c-7.752,31.091 -24.615,59.157 -48.428,80.598l17.865,19.84Z" style="fill:#7a8339;"/><path d="M126.047,205.888c27.766,-25 47.429,-57.726 56.468,-93.979l-181.93,-45.36l125.462,139.339Z" style="fill:none;stroke-width:1.5px;stroke:#7a8339;"/><circle cx="0.585" cy="66.549" r="112.5" style="fill:none;stroke-width:1.5px;stroke:#7a8339;"/><path d="M85.861,161.288c-22.598,20.357 -52.497,32.761 -85.276,32.761c-70.37,0 -127.5,-57.131 -127.5,-127.5c0,-70.37 57.13,-127.5 127.5,-127.5c70.369,0 127.5,57.13 127.5,127.5c0,10.637 -1.306,20.971 -3.765,30.852" style="fill:none;stroke-width:1.5px;stroke:#7a8339;"/><circle cx="0.585" cy="66.549" r="93.75" style="fill:none;stroke-width:1.5px;stroke:#7a8339;"/><circle cx="0.585" cy="66.549" r="86.25" style="fill:none;stroke-width:3.75px;stroke:#7a8339;"/><circle cx="0.585" cy="66.549" r="180" style="fill:none;stroke-width:1.5px;stroke-dasharray:1.5,4.5,0,0;stroke:#7a8339;"/></g></g></svg>