<?xml version="1.0" encoding="UTF-8" standalone="no"?><!DOCTYPE svg PUBLIC "-//W3C//DTD SVG 1.1//EN" "http://www.w3.org/Graphics/SVG/1.1/DTD/svg11.dtd"><svg width="100%" height="100%" viewBox="0 0 238 323" version="1.1" xmlns="http://www.w3.org/2000/svg" xmlns:xlink="http://www.w3.org/1999/xlink" xml:space="preserve" style="fill-rule:evenodd;clip-rule:evenodd;stroke-linejoin:round;stroke-miterlimit:1.41421;"><g><g opacity="0.697926"><path d="M80.274,76.081l-62.466,-10.728l52.96,-25.203l9.506,35.931Z" style="fill:#5d5f17;"/><path d="M12.298,97.326l5.514,-31.977l62.462,10.732l-67.976,21.245Z" style="fill:#7c7e2e;"/><path d="M38.514,156.956l-21.071,-22.517l17.036,-44.045l4.035,66.562Z" style="fill:#9fa14e;"/><path d="M34.479,90.394l45.795,-14.313l-4.651,29.257l-41.144,-14.944Z" style="fill:#202100;"/><path d="M38.506,156.957l-4.024,-66.555l34.699,57.778l-30.675,8.777Z" style="fill:#adaf84;"/><path d="M99.325,55.996l34.697,-0.626l-53.748,20.711l19.051,-20.085Z" style="fill:#adaf84;"/><path d="M70.772,40.149l28.555,15.846l-19.053,20.086l-9.502,-35.932Z" style="fill:#9fa14e;"/><path d="M161.444,29.71l50.754,-8.689l25.221,-21.444l-75.975,30.133Z" style="fill:#7c7e2e;"/><path d="M187.976,-0.324l16.827,12.839l30.947,-12.237l-47.774,-0.602Z" style="fill:#9fa14e;"/><path d="M161.448,29.71l26.652,-30.687l16.699,13.496l-43.351,17.191Z" style="fill:#202100;"/><path d="M0.171,25.126l0.004,-24.715l30.848,30.543l-30.852,-5.828Z" style="fill:#7c7e2e;"/><path d="M17.809,65.345l-11.908,-15.002l25.11,-19.4l-13.202,34.402Z" style="fill:#adaf84;"/><path d="M97.847,46.667l31.491,-47.194l4.684,55.897l-36.175,-8.703Z" style="fill:#202100;"/><path d="M70.768,40.145c11.229,6.217 19.04,10.571 28.559,15.85l34.695,-0.625l-63.254,-15.225Z" style="fill:#7c7e2e;"/><path d="M157.888,61.44l3.564,-31.731l-27.43,25.661l23.866,6.07Z" style="fill:#868b37;"/><path d="M130.84,17.41l30.612,12.297l-27.43,25.663l-3.182,-37.96Z" style="fill:#110;"/><path d="M187.615,0.025l-26.162,29.684l-11.838,-29.616l38,-0.068Z" style="fill:#adaf84;"/><path d="M130.84,17.411l18.186,-18.911l12.428,31.213l-30.614,-12.302Z" style="fill:#5d5f17;"/><path d="M130.84,17.411l18.146,-18.444l-19.556,1.415l1.41,17.029Z" style="fill:#3d3f06;"/><path d="M31.014,30.934l52.585,-0.643l14.248,16.375l-66.833,-15.732Z" style="fill:#3d3f06;"/><path d="M128.727,0.386l-45.133,29.906l14.253,16.378l30.88,-46.284Z" style="fill:#9fa14e;"/><path d="M44.517,-0.613l84.213,0.998l-45.141,29.909l-39.072,-30.907Z" style="fill:#7c7e2e;"/><path d="M31.004,30.937l12.648,-32.256l39.942,31.617l-52.59,0.639Z" style="fill:#5d5f17;"/><path d="M0.177,0.42l30.831,30.52l12.606,-32.055l-43.437,1.535Z" style="fill:#202100;"/><path d="M21.401,161.553l-21.311,66.228l39.534,50.397l-18.223,-116.625Z" style="fill:#81842d;"/><path d="M0.172,266.546l-0.172,-39.124l39.624,50.756l-39.452,-11.632Z" style="fill:#3d3f06;"/><path d="M0.17,66.14l0,-41.013l5.731,25.216l-5.731,15.797Z" style="fill:#110;"/><path d="M0.166,321.027l39.458,-42.849l-39.447,-11.638l-0.011,54.487Z" style="fill:#202100;"/><path d="M12.302,97.323l5.141,37.116l17.036,-44.045l-22.177,6.929Z" style="fill:#3d3f06;"/><path d="M0.162,167.265l17.281,-32.826l21.072,22.51l-38.353,10.316Z" style="fill:#7c7e2e;"/><path d="M0.169,88.958l17.274,45.481l-17.273,32.824l-0.001,-78.305Z" style="fill:#5d5f17;"/><path d="M17.81,65.348l-17.641,23.61l12.133,8.365l5.508,-31.975Z" style="fill:#110;"/><path d="M5.901,50.343l-5.735,-25.217l30.85,5.824l-25.115,19.393Z" style="fill:#9fa14e;"/><path d="M17.806,65.353l13.205,-34.42l39.76,9.221l-52.965,25.199Z" style="fill:#110;"/><path d="M17.814,65.352l-17.645,0.788l5.732,-15.797l11.913,15.009Z" style="fill:#3d3f06;"/><path d="M69.183,148.172l-34.704,-57.778l41.144,14.944l-6.44,42.834Z" style="fill:#818634;"/><path d="M158.065,60.572l3.387,-30.862l50.746,-8.689l-54.133,39.551Z" style="fill:#5d5f18;"/><path d="M0.169,88.958l17.274,45.481l-5.139,-37.115l-12.135,-8.366Z" style="fill:#adaf84;"/><path d="M0.17,66.141l17.643,-0.794l-17.644,23.611l0.001,-22.817Z" style="fill:#5d5f17;"/><path d="M0.23,228.613l21.17,-67.062l-21.231,5.712l0.061,61.35Z" style="fill:#110;"/></g></g></svg>