<?xml version="1.0" encoding="UTF-8" standalone="no"?><!DOCTYPE svg PUBLIC "-//W3C//DTD SVG 1.1//EN" "http://www.w3.org/Graphics/SVG/1.1/DTD/svg11.dtd"><svg width="100%" height="100%" viewBox="0 0 698 137" version="1.1" xmlns="http://www.w3.org/2000/svg" xmlns:xlink="http://www.w3.org/1999/xlink" xml:space="preserve" style="fill-rule:evenodd;clip-rule:evenodd;stroke-linejoin:round;stroke-miterlimit:1.41421;"><g><g><path d="M197.801,136.749l27.232,-89.362c22.288,3.121 42.622,5.628 66.093,8.86l-93.325,80.502Z" style="fill:#7c7e2e;"/><path d="M129.389,82.615l68.7,54.539l27.014,-89.826l-95.714,35.287Z" style="fill:#5d5f17;"/><path d="M0,136.615l130.474,-53.189l67.686,53.437l-198.16,-0.248Z" style="fill:#3d3f06;"/><path d="M0.022,0.75l74.31,5.857l-74.315,130.05l0.005,-135.907Z" style="fill:#5d5f17;"/><path d="M225.027,47.417l57.865,-17.678l8.311,26.533l-66.176,-8.855Z" style="fill:#9fa14e;"/><path d="M197.865,136.762l93.233,-80.586l121.385,-26.992l-214.618,107.578Z" style="fill:#3d3f06;"/><path d="M282.87,29.735l8.352,26.474l121.484,-27.023l-129.836,0.549Z" style="fill:#7c7e2e;"/><path d="M412.615,29.176l85.546,-24.192l72.444,99.506l-157.99,-75.314Z" style="fill:#7c7e2e;"/><path d="M520.742,36.204l106.453,-7.831l-56.651,76.029l-49.802,-68.198Z" style="fill:#9fa14e;"/><path d="M412.571,29.183l5.88,107.515l152.163,-32.214l-158.043,-75.301Z" style="fill:#3d3f06;"/><path d="M289.127,90.682l123.504,-61.602l5.985,107.487l-129.489,-45.885Z" style="fill:#5d5f17;"/><path d="M198.09,136.661l91.322,-46.489l129.642,46.472l-220.964,0.017Z" style="fill:#9fa14e;"/><path d="M224.986,47.392l-150.709,-40.856l14.103,94.058l136.606,-53.202Z" style="fill:#7c7e2e;"/><path d="M0.007,136.644l74.312,-130.13l14.074,94.157l-88.386,35.973Z" style="fill:#9fa14e;"/><path d="M418.535,136.633l152.076,-32.284l48.204,32.291l-200.28,-0.007Z" style="fill:#7c7e2e;"/><path d="M627.115,28.431l-8.376,108.208l-48.288,-32.15l56.664,-76.058Z" style="fill:#3d3f06;"/><path d="M697.459,74.143l-78.728,62.547l8.346,-108.241l70.382,45.694Z" style="fill:#7c7e2e;"/><path d="M697.583,136.599l-78.907,0.014l78.686,-62.456l0.221,62.442Z" style="fill:#9fa14e;"/></g></g></svg>