<?xml version="1.0" encoding="UTF-8" standalone="no"?><!DOCTYPE svg PUBLIC "-//W3C//DTD SVG 1.1//EN" "http://www.w3.org/Graphics/SVG/1.1/DTD/svg11.dtd"><svg width="100%" height="100%" viewBox="0 0 25 25" version="1.1" xmlns="http://www.w3.org/2000/svg" xmlns:xlink="http://www.w3.org/1999/xlink" xml:space="preserve" style="fill-rule:evenodd;clip-rule:evenodd;stroke-linecap:round;stroke-linejoin:round;stroke-miterlimit:1.41421;"><g><circle cx="12.116" cy="12.116" r="11.25" style="fill:#fff;stroke-width:1px;stroke:#000;"/></g><path d="M17.363,10.615l-3.749,-0.004l0,-3.746l1.502,0.002l-0.003,2.245l2.255,0l-0.005,1.503Z" style="fill:#000;"/><path d="M6.866,10.614l3.749,-0.004l-0.001,-3.745l-1.501,0.001l0.003,2.245l-2.255,0l0.005,1.503Z" style="fill:#000;"/><path d="M17.365,13.615l-3.749,0.004l0,3.746l1.502,-0.002l-0.004,-2.245l2.256,0l-0.005,-1.503Z" style="fill:#000;"/><path d="M6.872,13.615l3.749,0.004l0,3.746l-1.502,-0.002l0.003,-2.245l-2.255,0l0.005,-1.503Z" style="fill:#000;"/></svg>